HIERARCHY
ROOT Hips
{
	OFFSET 0.000000 0.000000 0.000000
	CHANNELS 6 Xposition Yposition Zposition Xrotation Yrotation Zrotation
	JOINT LeftUpLeg_virtual
	{
		OFFSET 0.000000 0.000000 0.000000
		CHANNELS 3 Xrotation Yrotation Zrotation
		JOINT LeftUpLeg
		{
			OFFSET 11.394100 -6.187798 -0.413800
			CHANNELS 3 Xrotation Yrotation Zrotation
			JOINT LeftLeg
			{
				OFFSET 0.430247 -32.302673 3.732800
				CHANNELS 3 Xrotation Yrotation Zrotation
				JOINT LeftFoot
				{
					OFFSET -0.430247 -48.264931 -6.423300
					CHANNELS 3 Xrotation Yrotation Zrotation
					JOINT LeftToeBase
					{
						OFFSET 4.230900 -16.068199 23.438400
						CHANNELS 3 Xrotation Yrotation Zrotation
						JOINT LeftToe_End
						{
							OFFSET 4.510700 0.695400 19.974600
							CHANNELS 3 Xrotation Yrotation Zrotation
							End Site
							{
								OFFSET 0 0 0
							}
						}
					}
				}
			}
		}
	}
	JOINT RightUpLeg_virtual
	{
		OFFSET 0.000000 0.000000 0.000000
		CHANNELS 3 Xrotation Yrotation Zrotation
		JOINT RightUpLeg
		{
			OFFSET -11.333700 -6.187798 -0.413800
			CHANNELS 3 Xrotation Yrotation Zrotation
			JOINT RightLeg
			{
				OFFSET -0.430392 -32.302628 3.733000
				CHANNELS 3 Xrotation Yrotation Zrotation
				JOINT RightFoot
				{
					OFFSET 0.430392 -48.264973 -6.423500
					CHANNELS 3 Xrotation Yrotation Zrotation
					JOINT RightToeBase
					{
						OFFSET -4.230900 -16.068199 23.438400
						CHANNELS 3 Xrotation Yrotation Zrotation
						JOINT RightToe_End
						{
							OFFSET -4.510700 0.695400 19.974600
							CHANNELS 3 Xrotation Yrotation Zrotation
							End Site
							{
								OFFSET 0 0 0
							}
						}
					}
				}
			}
		}
	}
	JOINT Spine_virtual
	{
		OFFSET 0.000000 0.000000 0.000000
		CHANNELS 3 Xrotation Yrotation Zrotation
		JOINT Spine
		{
			OFFSET -0.002400 12.777504 0.315300
			CHANNELS 3 Xrotation Yrotation Zrotation
			JOINT Spine1
			{
				OFFSET -0.002067 5.816869 0.032633
				CHANNELS 3 Xrotation Yrotation Zrotation
				JOINT Spine1_split
				{
					OFFSET -0.002067 5.816869 0.032633
					CHANNELS 3 Xrotation Yrotation Zrotation
					JOINT Spine2
					{
						OFFSET -0.002067 5.816869 0.032633
						CHANNELS 3 Xrotation Yrotation Zrotation
						JOINT Neck_virtual
						{
							OFFSET 0.000000 0.000000 0.000000
							CHANNELS 3 Xrotation Yrotation Zrotation
							JOINT Neck
							{
								OFFSET -0.003700 21.199493 -0.826900
								CHANNELS 3 Xrotation Yrotation Zrotation
								JOINT Head
								{
									OFFSET 0.000000 20.442200 4.834800
									CHANNELS 3 Xrotation Yrotation Zrotation
									JOINT HeadTop_End
									{
										OFFSET 0.000000 34.668396 4.968400
										CHANNELS 3 Xrotation Yrotation Zrotation
										End Site
										{
											OFFSET 0 0 0
										}
									}
								}
							}
						}
						JOINT LeftShoulder_virtual
						{
							OFFSET 0.000000 0.000000 0.000000
							CHANNELS 3 Xrotation Yrotation Zrotation
							JOINT LeftShoulder
							{
								OFFSET 3.288150 8.794197 -1.372250
								CHANNELS 3 Xrotation Yrotation Zrotation
								JOINT LeftShoulder_split
								{
									OFFSET 3.288150 8.794197 -1.372250
									CHANNELS 3 Xrotation Yrotation Zrotation
									JOINT LeftArm
									{
										OFFSET 11.953299 -2.279007 -0.146200
										CHANNELS 3 Xrotation Yrotation Zrotation
										JOINT LeftForeArm
										{
											OFFSET 18.448900 0.000000 0.000000
											CHANNELS 3 Xrotation Yrotation Zrotation
											JOINT LeftHand
											{
												OFFSET 29.527798 0.000000 0.000000
												CHANNELS 3 Xrotation Yrotation Zrotation
												End Site
												{
													OFFSET 0 0 0
												}
											}
										}
									}
								}
							}
						}
						JOINT RightShoulder_virtual
						{
							OFFSET 0.000000 0.000000 0.000000
							CHANNELS 3 Xrotation Yrotation Zrotation
							JOINT RightShoulder
							{
								OFFSET -3.249400 8.794197 -1.372250
								CHANNELS 3 Xrotation Yrotation Zrotation
								JOINT RightShoulder_split
								{
									OFFSET -3.249400 8.794197 -1.372250
									CHANNELS 3 Xrotation Yrotation Zrotation
									JOINT RightArm
									{
										OFFSET -11.953299 -2.279007 -0.146200
										CHANNELS 3 Xrotation Yrotation Zrotation
										JOINT RightForeArm
										{
											OFFSET -18.448900 0.000000 0.000000
											CHANNELS 3 Xrotation Yrotation Zrotation
											JOINT RightHand
											{
												OFFSET -29.527802 0.000000 0.000000
												CHANNELS 3 Xrotation Yrotation Zrotation
												End Site
												{
													OFFSET 0 0 0
												}
											}
										}
									}
								}
							}
						}
					}
				}
			}
		}
	}
}
MOTION
Frames: 6
Frame Time: 0.03333333
5.855371 56.616409 -22.344257 0.000000 0.000000 0.000000 32.503835 13.188708 0.660962 -104.869181 -7.399466 17.586018 101.260334 -1.506479 -1.388276 -4.811308 -0.506500 -13.227323 -19.482058 -4.296702 -11.930443 0.000000 0.000000 0.000000 33.088206 10.012289 1.661323 -101.529198 -5.501144 -15.099115 118.144009 8.731270 -6.849158 -28.194259 -16.052584 -9.842942 -14.163994 8.349249 -27.791408 0.000000 0.000000 0.000000 36.919573 9.864224 0.891290 9.829075 -0.161733 0.425962 19.482343 -3.508332 -3.927403 0.356318 -0.032733 -0.020992 0.000000 0.000000 0.000000 20.355750 -2.781735 -3.578794 -21.123373 9.829092 5.149088 -28.467846 27.006839 24.295307 0.000000 0.000000 0.000000 18.563853 -3.195205 -5.116180 3.543903 0.131644 4.229751 10.868188 -4.542242 2.635639 -34.533447 -24.974278 -27.124886 -31.295015 -78.730525 -36.121606 0.000000 0.000000 0.000000 21.788131 -2.699286 -4.121348 10.483992 29.391639 1.302833 2.235548 2.325502 3.602770 -43.014639 12.470770 30.762981 -31.508452 53.396442 13.999595 0.000000 0.000000 0.000000 
5.448802 52.371262 -22.626606 0.000000 0.000000 0.000000 34.949474 16.778805 -0.337310 -99.382271 -10.312533 21.924383 106.484698 -4.267462 -1.542087 -17.013156 3.076591 -14.613823 -20.199127 -3.571565 -16.009357 0.000000 0.000000 0.000000 34.829091 12.728314 1.088780 -111.483768 1.046910 -14.722732 123.651942 6.851133 -4.085509 -23.346428 -19.925996 -6.611046 -15.848190 9.020025 -24.590879 0.000000 0.000000 0.000000 39.964014 12.692566 0.315498 9.155939 -0.435465 -0.556888 17.617174 -3.163189 -3.154801 0.295998 -0.042601 0.053404 0.000000 0.000000 0.000000 18.460388 -2.516019 -2.910779 -17.162558 9.800347 2.855660 -28.145492 20.902930 26.191477 0.000000 0.000000 0.000000 16.630718 -2.943672 -4.285806 3.356716 -0.167532 3.713886 9.899887 -3.962892 1.546439 -33.332918 -31.509254 -25.977537 -36.487468 -78.567318 -41.983240 0.000000 0.000000 0.000000 19.949121 -2.580565 -3.450188 10.347118 30.466134 3.286396 2.199998 1.894895 3.855965 -44.893092 16.815740 31.124486 -28.128445 50.333327 11.139684 0.000000 0.000000 0.000000 
4.882926 49.071434 -22.711147 0.000000 0.000000 0.000000 37.252934 19.953873 -1.612637 -93.814841 -12.735644 26.209026 108.793002 -8.036335 -0.178901 -25.469763 5.279709 -18.577421 -19.520807 -3.731293 -17.235021 0.000000 0.000000 0.000000 36.624567 15.176644 0.213461 -118.649320 6.240606 -13.137214 127.596499 5.500565 -1.402571 -18.670438 -22.538502 -3.203197 -18.246750 9.996988 -22.373717 0.000000 0.000000 0.000000 42.724971 15.309825 -0.516081 8.495512 -0.705469 -1.508143 15.601959 -2.801439 -2.142216 0.183541 -0.056376 0.137490 0.000000 0.000000 0.000000 16.417316 -2.139390 -2.094713 -13.619641 9.324784 0.721792 -27.650337 14.324169 27.642908 0.000000 0.000000 0.000000 14.659866 -2.607974 -3.233470 3.251903 -0.386468 2.839748 8.467668 -3.187050 -0.322070 -30.882144 -37.181279 -26.215960 -34.643611 -76.711671 -40.566508 0.000000 0.000000 0.000000 18.000045 -2.352185 -2.571731 10.152793 30.461045 5.090822 2.159420 1.579087 4.391553 -45.978026 19.548932 32.375411 -25.436205 47.865723 8.933285 0.000000 0.000000 0.000000 
4.309004 46.800465 -22.619434 0.000000 0.000000 0.000000 39.413432 22.214820 -2.962241 -89.719412 -14.830070 29.908026 109.447703 -11.655233 1.825025 -29.460119 5.995919 -23.235132 -20.537617 -4.497112 -15.852905 0.000000 0.000000 0.000000 38.501151 16.831432 -0.812924 -123.026638 9.587479 -11.148501 130.079163 4.435851 1.145054 -16.043390 -23.942870 -0.825162 -20.527430 11.049470 -21.295579 0.000000 0.000000 0.000000 45.248081 17.096988 -1.353425 7.944640 -0.836544 -2.160458 13.758742 -2.475916 -1.073392 0.092933 -0.175700 0.221776 0.000000 0.000000 0.000000 14.560097 -1.744799 -1.226421 -10.830362 8.608174 -1.211684 -27.384484 8.158373 28.345888 0.000000 0.000000 0.000000 12.970376 -2.280640 -2.149016 3.222575 -0.503337 1.680741 6.773374 -2.130327 -2.516979 -27.552691 -41.612897 -26.949336 -29.721770 -73.713751 -35.754804 0.000000 0.000000 0.000000 16.255343 -2.062537 -1.612442 10.044486 29.536391 6.352121 1.949244 1.239097 5.232533 -45.786989 20.727819 33.670254 -23.502396 45.889401 7.303331 0.000000 0.000000 0.000000 
3.829149 45.449890 -22.130695 0.000000 0.000000 0.000000 41.265496 23.279689 -4.091011 -88.063104 -16.709979 32.354712 110.108400 -13.855021 3.419165 -30.182883 5.511147 -26.428990 -21.709889 -5.401163 -14.995668 0.000000 0.000000 0.000000 40.450187 17.206638 -1.559678 -124.622839 10.981334 -9.298607 131.403824 3.389101 3.560196 -16.541048 -24.458494 -0.750766 -21.741554 11.958365 -21.289331 0.000000 0.000000 0.000000 47.330663 18.037083 -2.071693 7.500196 -0.728668 -2.328057 12.331761 -2.221719 -0.123599 0.016948 -0.333568 0.252246 0.000000 0.000000 0.000000 13.118562 -1.414138 -0.480198 -8.820703 7.692290 -2.887940 -27.625281 3.391923 28.118760 0.000000 0.000000 0.000000 11.760553 -2.017841 -1.183012 3.252267 -0.428428 0.366778 5.090660 -1.166540 -4.497879 -24.020500 -44.920693 -27.448408 -24.799537 -70.328218 -30.604818 0.000000 0.000000 0.000000 14.907854 -1.755130 -0.729705 10.099798 27.804235 6.891421 1.944912 1.347344 6.071150 -44.365367 20.716177 34.328780 -22.445383 44.284570 6.242675 0.000000 0.000000 0.000000 
3.491041 44.835144 -21.671734 0.000000 0.000000 0.000000 42.505087 23.166262 -4.683004 -88.897528 -18.265195 33.287586 111.071280 -14.434958 4.469408 -29.473680 4.384975 -27.827207 -22.573623 -5.934853 -15.924212 0.000000 0.000000 0.000000 42.092970 16.342225 -1.734783 -124.087079 10.940608 -7.762927 131.961277 2.364092 5.765040 -18.995997 -24.399200 -2.424220 -21.903049 12.636794 -22.262404 0.000000 0.000000 0.000000 48.783369 18.148183 -2.576406 7.209433 -0.405165 -2.053065 11.407385 -2.046141 0.534561 -0.031058 -0.492467 0.232979 0.000000 0.000000 0.000000 12.199733 -1.181023 -0.011565 -7.527747 6.671376 -4.211957 -28.229828 0.707805 27.126983 0.000000 0.000000 0.000000 11.082254 -1.852347 -0.504332 3.318118 -0.139985 -0.874806 3.613037 -0.267710 -5.831797 -20.902495 -47.340348 -27.342905 -21.044907 -67.447449 -26.282302 0.000000 0.000000 0.000000 14.064523 -1.473623 -0.078564 10.275643 25.683221 6.784501 1.990616 1.982046 6.673036 -42.149401 20.110877 34.191944 -22.254797 43.058035 5.782109 0.000000 0.000000 0.000000 
